<svg xmlns="http://www.w3.org/2000/svg" xmlns:xlink="http://www.w3.org/1999/xlink" width="40" zoomAndPan="magnify" viewBox="0 0 30 30.000001" height="40" preserveAspectRatio="xMidYMid meet" version="1.0"><defs><clipPath id="cdd840e065"><path d="M 3 3 L 28.066406 3 L 28.066406 29.03125 L 3 29.03125 Z M 3 3 " clip-rule="nonzero"/></clipPath><clipPath id="f05101be70"><path d="M 0.484375 0 L 26 0 L 26 27 L 0.484375 27 Z M 0.484375 0 " clip-rule="nonzero"/></clipPath></defs><g clip-path="url(#cdd840e065)"><path fill="#ffe16a" d="M 28.015625 5.429688 C 28.015625 4.671875 27.660156 3.964844 27.058594 3.523438 C 26.457031 3.082031 25.679688 2.949219 24.96875 3.179688 L 12.101562 7.3125 C 11.132812 7.625 10.472656 8.53125 10.472656 9.558594 L 10.472656 17.347656 C 10.09375 17.273438 9.703125 17.230469 9.304688 17.230469 C 6.074219 17.230469 3.457031 19.875 3.457031 23.132812 C 3.457031 26.390625 6.074219 29.03125 9.304688 29.03125 C 12.535156 29.03125 15.152344 26.390625 15.152344 23.132812 L 15.152344 11.289062 L 23.339844 8.65625 L 23.339844 14.988281 C 22.960938 14.910156 22.570312 14.871094 22.167969 14.871094 C 18.9375 14.871094 16.320312 17.515625 16.320312 20.769531 C 16.320312 24.027344 18.9375 26.671875 22.167969 26.671875 C 25.398438 26.671875 28.015625 24.027344 28.015625 20.769531 Z M 28.015625 5.429688 " fill-opacity="1" fill-rule="nonzero"/></g><g clip-path="url(#f05101be70)"><path fill="#8e47ff" d="M 25.09375 2.476562 C 25.09375 1.722656 24.738281 1.015625 24.132812 0.574219 C 23.53125 0.128906 22.753906 0 22.042969 0.230469 L 9.179688 4.359375 C 8.207031 4.671875 7.550781 5.582031 7.550781 6.609375 L 7.550781 14.398438 C 7.171875 14.320312 6.78125 14.28125 6.378906 14.28125 C 3.148438 14.28125 0.53125 16.921875 0.53125 20.179688 C 0.53125 23.4375 3.148438 26.082031 6.378906 26.082031 C 9.609375 26.082031 12.226562 23.4375 12.226562 20.179688 L 12.226562 8.339844 L 20.414062 5.707031 L 20.414062 12.039062 C 20.035156 11.960938 19.644531 11.917969 19.246094 11.917969 C 16.015625 11.917969 13.398438 14.5625 13.398438 17.820312 C 13.398438 21.078125 16.015625 23.722656 19.246094 23.722656 C 22.476562 23.722656 25.09375 21.078125 25.09375 17.820312 Z M 25.09375 2.476562 " fill-opacity="1" fill-rule="nonzero"/></g></svg>